<?xml version="1.0" ?><svg id="icons" viewBox="0 0 64 64" xmlns="http://www.w3.org/2000/svg"><defs><style>.cls-1{fill:#6c6c80;}.cls-2{fill:#fff;}</style></defs><title/><path class="cls-1" d="M57.56,30.86h-.14l-10-1.11a1.29,1.29,0,0,1-1.14-1.43l1.1-10a1.3,1.3,0,0,1,2.31-.66l8.86,11.07a1.32,1.32,0,0,1,.12,1.44A1.3,1.3,0,0,1,57.56,30.86ZM49,27.31l5.56.62-4.94-6.19Z"/><path class="cls-1" d="M23.76,57.89a1.3,1.3,0,0,1-1-.48L13.89,46.33a1.3,1.3,0,0,1,1.16-2.1l10,1.11a1.29,1.29,0,0,1,1.14,1.43l-1.11,10a1.28,1.28,0,0,1-.93,1.1A1.12,1.12,0,0,1,23.76,57.89ZM17.87,47.16l4.95,6.18.62-5.57Z"/><path class="cls-2" d="M31,36.64a2.49,2.49,0,0,0,2.46-2.9c-1.32-7.82-6.57-13.66-12.85-13.66S9,25.92,7.71,33.74a2.5,2.5,0,0,0,2.46,2.9Z"/><path class="cls-1" d="M31,37.93H10.17a3.77,3.77,0,0,1-3.73-4.41c1.47-8.67,7.28-14.73,14.13-14.73S33.23,24.85,34.7,33.52A3.78,3.78,0,0,1,31,37.93ZM20.57,21.38C15.1,21.38,10.23,26.67,9,34a1.15,1.15,0,0,0,.27.95,1.2,1.2,0,0,0,.91.43H31a1.2,1.2,0,0,0,.92-.43,1.15,1.15,0,0,0,.26-.95C30.91,26.67,26,21.38,20.57,21.38Z"/><path class="cls-2" d="M28.63,7.42,20.57,20.08,12.64,7.42V7.13c2,0,2,.82,4,.82s2-.82,4-.82,2,.82,4,.82,2-.82,4-.82Z"/><path class="cls-1" d="M20.57,21.38h0a1.29,1.29,0,0,1-1.09-.61L11.54,8.11a1.32,1.32,0,0,1-.2-.69V7.13a1.3,1.3,0,0,1,1.3-1.3,5.75,5.75,0,0,1,2.49.51,3.29,3.29,0,0,0,1.5.31,3.37,3.37,0,0,0,1.51-.31,5.71,5.71,0,0,1,2.49-.51,5.75,5.75,0,0,1,2.49.51,3.31,3.31,0,0,0,1.51.31,3.37,3.37,0,0,0,1.51-.31,5.71,5.71,0,0,1,2.49-.51,1.3,1.3,0,0,1,1.3,1.3v.29a1.25,1.25,0,0,1-.21.7L21.66,20.78A1.29,1.29,0,0,1,20.57,21.38ZM15.22,9.1l5.36,8.55L26,9.11a6.63,6.63,0,0,1-1.39.14,5.71,5.71,0,0,1-2.49-.51,3.37,3.37,0,0,0-1.51-.31,3.31,3.31,0,0,0-1.51.31,5.71,5.71,0,0,1-2.49.51A6,6,0,0,1,15.22,9.1Z"/><rect class="cls-2" height="14.18" rx="3.53" transform="translate(-15.42 30.92) rotate(-38.65)" width="28.76" x="21.99" y="30.34"/><path class="cls-1" d="M30.13,51.82A4.81,4.81,0,0,1,26.35,50L21.9,44.45a4.84,4.84,0,0,1,.76-6.79L39.6,24.11a4.84,4.84,0,0,1,6.78.75l4.45,5.56a4.85,4.85,0,0,1-.75,6.79h0L33.14,50.76A4.83,4.83,0,0,1,30.13,51.82ZM42.61,25.65a2.21,2.21,0,0,0-1.39.49L24.28,39.68a2.25,2.25,0,0,0-.35,3.15l4.44,5.55a2.24,2.24,0,0,0,3.15.35L48.45,35.19A2.25,2.25,0,0,0,48.81,32l-4.45-5.56A2.23,2.23,0,0,0,42.61,25.65ZM49.27,36.2Z"/></svg>