<svg xmlns="http://www.w3.org/2000/svg" xmlns:xlink="http://www.w3.org/1999/xlink" style="enable-background:new 0 0 48 48;" version="1.1" xml:space="preserve" width="30" height="30"><rect id="backgroundrect" width="100%" height="100%" x="0" y="0" fill="none" stroke="none"/><g class="currentLayer" style=""><title>Layer 1</title><g id="svg_1" class="selected" stroke-opacity="1" stroke="#ffffff" fill-opacity="1" fill="#ffffff"><path d="M24,26c6.6,0,12-5.4,12-12S30.6,2,24,2c-6.6,0-12,5.4-12,12S17.4,26,24,26z M24,4c5.5,0,10,4.5,10,10s-4.5,10-10,10   c-5.5,0-10-4.5-10-10S18.5,4,24,4z" id="svg_2" stroke="#ffffff" fill="#ffffff"/><path d="M33,28H15C7.8,28,2,33.8,2,41v5h2v-5c0-6.1,4.9-11,11-11h18V28z" id="svg_3" stroke="#ffffff" fill="#ffffff"/><polygon points="46,38 40,38 40,32 38,32 38,38 32,38 32,40 38,40 38,46 40,46 40,40 46,40  " id="svg_4" stroke="#ffffff" fill="#ffffff"/></g></g></svg>