<?xml version="1.0" ?><svg id="icons" viewBox="0 0 64 64" xmlns="http://www.w3.org/2000/svg"><defs><style>.cls-1{fill:#6c6c80;}.cls-2{fill:#ffffff;}</style></defs><title/><path class="cls-1" d="M37.71,58.36H24a1,1,0,0,1-1-1V28.91c0-2.44,1.42-5.48,3.81-6.33a.65.65,0,0,0,.37-.61V5.62a2.39,2.39,0,0,1,2.39-2.39h2.58a2.39,2.39,0,0,1,2.39,2.39V22a.63.63,0,0,0,.37.61c2.38.85,3.81,3.89,3.81,6.33V57.36A1,1,0,0,1,37.71,58.36ZM25,56.36H36.71V28.91c0-1.9-1.16-4-2.48-4.45h0A2.61,2.61,0,0,1,32.53,22V5.62a.39.39,0,0,0-.39-.39H29.56a.38.38,0,0,0-.39.39V22a2.63,2.63,0,0,1-1.7,2.49C26.15,24.93,25,27,25,28.91Z"/><path class="cls-1" d="M33.18,15h-5a1,1,0,0,1,0-2h5a1,1,0,0,1,0,2Z"/><path class="cls-1" d="M29.91,46.29H24.4a1,1,0,0,1,0-2h4.51V34.52H24.4a1,1,0,0,1,0-2h5.51a1,1,0,0,1,1,1V45.29A1,1,0,0,1,29.91,46.29Z"/><path class="cls-2" d="M37.5,28.65A11.12,11.12,0,0,0,37,32.06c0,5.22,3.45,9.45,7.7,9.45s7.69-4.23,7.69-9.45a11.43,11.43,0,0,0-.52-3.41Z"/><path class="cls-1" d="M44.67,42.51c-4.8,0-8.7-4.69-8.7-10.45a12.23,12.23,0,0,1,.57-3.71,1,1,0,0,1,1-.7H51.84a1,1,0,0,1,.95.7,12.28,12.28,0,0,1,.57,3.71C53.36,37.82,49.46,42.51,44.67,42.51ZM38.26,29.65A10.25,10.25,0,0,0,38,32.06c0,4.66,3,8.45,6.7,8.45s6.69-3.79,6.69-8.45a10.25,10.25,0,0,0-.28-2.41Z"/><path class="cls-1" d="M50.46,58.36H38.66a1,1,0,0,1-1-.73,1,1,0,0,1,.45-1.13L42.29,54V41.64a1,1,0,0,1,2,0v13a1,1,0,0,1-.49.86l-1.51.9h4.54l-1.51-.9a1,1,0,0,1-.49-.86v-13a1,1,0,0,1,2,0V54L51,56.5a1,1,0,0,1,.45,1.13A1,1,0,0,1,50.46,58.36Z"/><path class="cls-1" d="M52.15,34.52H37.07a1,1,0,0,1,0-2H52.15a1,1,0,0,1,0,2Z"/></svg>