<?xml version="1.0" ?><svg id="icons" viewBox="0 0 64 64" xmlns="http://www.w3.org/2000/svg"><defs><style>.cls-1{fill:#ffffff;}.cls-2{fill:#6c6c80;}</style></defs><title/><path class="cls-1" d="M38.56,18.9c-9.23,0-20.52,6.48-23.44,13.62C18,39.67,29.33,46.15,38.56,46.15A21.41,21.41,0,0,0,58.68,32.52,21.41,21.41,0,0,0,38.56,18.9Z"/><path class="cls-2" d="M38.56,47.28c-9.75,0-21.42-6.83-24.48-14.33a1,1,0,0,1,0-.85c3.06-7.51,14.73-14.34,24.48-14.34A22.63,22.63,0,0,1,59.74,32.12a1.13,1.13,0,0,1,0,.81A22.63,22.63,0,0,1,38.56,47.28ZM16.36,32.52C19.35,39,30,45,38.56,45a20.38,20.38,0,0,0,18.9-12.5A20.37,20.37,0,0,0,38.56,20C30,20,19.35,26,16.36,32.52Z"/><path class="cls-1" d="M8.69,34.88a10.33,10.33,0,0,0-3.37,6.94c1.07-1,4,0,6.15-2a10.33,10.33,0,0,0,3.37-6.94C13.18,32.18,10.8,32.89,8.69,34.88Z"/><path class="cls-2" d="M5.32,43a1,1,0,0,1-.45-.1,1.12,1.12,0,0,1-.68-1,11.37,11.37,0,0,1,3.72-7.76c2.38-2.25,5.2-3.13,7.34-2.28A1.13,1.13,0,0,1,16,32.84a11.45,11.45,0,0,1-3.72,7.76,7.48,7.48,0,0,1-4.69,1.75,4.2,4.2,0,0,0-1.46.3A1.13,1.13,0,0,1,5.32,43Zm8.21-9.23a6.43,6.43,0,0,0-4.06,2A10.07,10.07,0,0,0,6.7,40.17l.63-.07A5.33,5.33,0,0,0,10.69,39a9.73,9.73,0,0,0,2.93-5.22Z"/><path class="cls-1" d="M37.46,45.74a8.58,8.58,0,0,1-6.55,2.43c1-1,.51-4.22,2.52-6.1A8.58,8.58,0,0,1,40,39.64,7.33,7.33,0,0,1,37.46,45.74Z"/><path class="cls-2" d="M31.49,49.32l-.66,0a1.14,1.14,0,0,1-.7-2,5.1,5.1,0,0,0,.44-1.52,8.12,8.12,0,0,1,2.08-4.58,9.77,9.77,0,0,1,7.41-2.73,1.13,1.13,0,0,1,1,1,8.53,8.53,0,0,1-2.88,7h0A9.78,9.78,0,0,1,31.49,49.32Zm7.35-8.55a7.48,7.48,0,0,0-4.63,2.12,6.18,6.18,0,0,0-1.42,3.38c0,.23-.09.47-.15.7a7.61,7.61,0,0,0,4-2.06h0A6.37,6.37,0,0,0,38.84,40.77Z"/><path class="cls-1" d="M8.69,29.85a10.33,10.33,0,0,1-3.37-6.94c1.07,1,4,.06,6.15,2.05a10.33,10.33,0,0,1,3.37,6.94C13.18,32.55,10.8,31.84,8.69,29.85Z"/><path class="cls-2" d="M13.52,33.27a8.5,8.5,0,0,1-5.61-2.6,11.37,11.37,0,0,1-3.72-7.75,1.14,1.14,0,0,1,1.91-.84,4.15,4.15,0,0,0,1.46.3,7.48,7.48,0,0,1,4.69,1.75A11.45,11.45,0,0,1,16,31.89,1.13,1.13,0,0,1,15.25,33,4.55,4.55,0,0,1,13.52,33.27ZM6.7,24.56A10.1,10.1,0,0,0,9.47,29a6.32,6.32,0,0,0,4.15,2,9.73,9.73,0,0,0-2.93-5.22,5.33,5.33,0,0,0-3.36-1.15Z"/><path class="cls-1" d="M47.34,44.33a19.57,19.57,0,0,1-3.68-11.81,19.56,19.56,0,0,1,3.68-11.8Z"/><path class="cls-2" d="M47.34,45.46a1.13,1.13,0,0,1-.9-.44,20.68,20.68,0,0,1-3.91-12.5A20.65,20.65,0,0,1,46.44,20a1.13,1.13,0,0,1,1.8,1.38,18.61,18.61,0,0,0-3.45,11.11,18.62,18.62,0,0,0,3.45,11.12,1.13,1.13,0,0,1-.9,1.82Z"/><path class="cls-1" d="M52.73,31.81a1.94,1.94,0,1,1-1.94-1.94A1.94,1.94,0,0,1,52.73,31.81Z"/><path class="cls-2" d="M50.79,34.88a3.08,3.08,0,1,1,3.08-3.07A3.08,3.08,0,0,1,50.79,34.88Zm0-3.88a.81.81,0,1,0,.81.81A.81.81,0,0,0,50.79,31Z"/></svg>