<?xml version="1.0" ?><svg id="icons" viewBox="0 0 64 64" xmlns="http://www.w3.org/2000/svg"><defs><style>.cls-1{fill:#6c6c80;}</style></defs><title/><path class="cls-1" d="M27.88,54.75a14.56,14.56,0,0,1-4.94-.87,14.52,14.52,0,0,1-4.94.87c-8,0-14.4-9.87-14.4-18A14.39,14.39,0,0,1,22.94,23.18,14.39,14.39,0,0,1,42.29,36.71C42.29,44.88,35.86,54.75,27.88,54.75Zm-4.94-3.56a1.37,1.37,0,0,1,.49.09,11.72,11.72,0,0,0,4.45.87c6.25,0,11.81-8.63,11.81-15.44A11.81,11.81,0,0,0,23.43,25.77a1.28,1.28,0,0,1-1,0A11.65,11.65,0,0,0,18,24.9,11.83,11.83,0,0,0,6.19,36.71c0,6.81,5.56,15.44,11.81,15.44a11.65,11.65,0,0,0,4.45-.87A1.41,1.41,0,0,1,22.94,51.19Z"/><path class="cls-1" d="M43.76,55.06a16.69,16.69,0,0,1-6.57-1.35,15.84,15.84,0,0,1-3.38-2,1.3,1.3,0,0,1,1.57-2.07,14,14,0,0,0,2.83,1.65A13.92,13.92,0,0,0,55.82,31.64,10.43,10.43,0,0,1,54.42,25c.52-3.86-.93-6.35-4.33-7.38-3.93-1.18-6.34,1.55-7.67,4.05A10.11,10.11,0,0,1,37.81,26a13.16,13.16,0,0,0-1.6.88,1.3,1.3,0,1,1-1.4-2.18,16,16,0,0,1,1.9-1.05,7.45,7.45,0,0,0,3.42-3.18c2.49-4.68,6.39-6.62,10.71-5.31,4.6,1.39,6.84,5.12,6.15,10.21a7.89,7.89,0,0,0,1.08,5A16.5,16.5,0,0,1,43.76,55.06Z"/><path class="cls-1" d="M22.93,24.93a1.3,1.3,0,0,1-1.29-1.3,6.21,6.21,0,0,0-4.7-6,1.3,1.3,0,1,1,.64-2.52,8.81,8.81,0,0,1,6.65,8.55A1.3,1.3,0,0,1,22.93,24.93Z"/><path class="cls-1" d="M51.69,18.19a1.3,1.3,0,0,1-1.3-1.29A8.62,8.62,0,0,1,56.9,8.53,1.3,1.3,0,1,1,57.54,11,6,6,0,0,0,53,16.9,1.29,1.29,0,0,1,51.69,18.19Z"/><path class="cls-1" d="M26.5,20.27a9.7,9.7,0,0,1-3.85-.77,1,1,0,0,1-.58-.87,11.22,11.22,0,0,1,15.13-10,1,1,0,0,1,.58.88,10.88,10.88,0,0,1-5,8.86A11.41,11.41,0,0,1,26.5,20.27ZM24,18a9.06,9.06,0,0,0,7.71-1.21,9.06,9.06,0,0,0,4.14-6.62,9.06,9.06,0,0,0-7.71,1.21h0A9.09,9.09,0,0,0,24,18Zm3.61-7.42h0Z"/><path class="cls-1" d="M26.5,20.62a10.23,10.23,0,0,1-4-.8,1.29,1.29,0,0,1-.79-1.19A11.22,11.22,0,0,1,26.9,9.48,11.2,11.2,0,0,1,37.34,8.31a1.29,1.29,0,0,1,.79,1.19A11.22,11.22,0,0,1,33,18.65,11.74,11.74,0,0,1,26.5,20.62Zm-2.13-2.89a8.76,8.76,0,0,0,7.15-1.25,8.79,8.79,0,0,0,4-6.09,8.77,8.77,0,0,0-7.15,1.26h0A8.79,8.79,0,0,0,24.37,17.73Zm3.24-7.17h0Z"/></svg>