<svg height="512pt" viewBox="0 -86 512.00002 512" width="512pt" xmlns="http://www.w3.org/2000/svg"><path d="m126.679688 94.363281v245.320313h258.636718v-245.320313c-86.210937-61.167969-172.421875-61.167969-258.636718 0zm0 0" fill="#5692d8"/><path d="m151.40625 78.503906c-8.242188 4.726563-16.484375 10.011719-24.722656 15.859375v245.320313h24.722656zm0 0" fill="#3165a3"/><path d="m126.679688 94.363281v120.988281h258.636718v-120.988281c-86.210937-61.167969-172.421875-61.167969-258.636718 0zm0 0" fill="#c8e7f7"/><g fill="#8cbcd6"><path d="m151.40625 78.503906c-1.941406 1.113282-3.878906 2.261719-5.820312 3.4375-.273438.167969-.550782.335938-.828126.503906-1.898437 1.160157-3.796874 2.339844-5.699218 3.558594-.003906.003906-.011719.007813-.019532.011719-1.863281 1.195313-3.726562 2.429687-5.589843 3.679687-.410157.277344-.820313.554688-1.234375.835938-1.84375 1.25-3.6875 2.523438-5.535156 3.832031v120.984375h24.726562zm0 0"/><path d="m193.464844 59.214844v49.699218c0 12.699219 10.296875 22.992188 22.996094 22.992188h103.804687c12.699219 0 22.992187-10.292969 22.992187-22.992188v-39.539062c-49.929687-23.90625-99.859374-27.289062-149.792968-10.160156zm0 0"/><path d="m385.316406 147.886719h-70.550781v-89.914063c-4.820313-1.554687-9.644531-2.925781-14.464844-4.101562-.339843.859375-.535156 1.792968-.535156 2.773437v91.242188h-87.527344v-92.183594c0-.65625-.09375-1.289063-.253906-1.898437-4.914063 1.1875-9.832031 2.582031-14.746094 4.167968v89.914063h-70.558593v15h70.558593v52.464843h15v-52.464843h87.527344v52.464843h15v-52.464843h70.550781zm0 0"/></g><path d="m212.238281 55.703125c0-.65625-.09375-1.289063-.253906-1.898437-.4375.105468-.875.222656-1.3125.332031-.84375.210937-1.691406.421875-2.535156.644531-.835938.21875-1.667969.449219-2.503907.679688-.5.136718-.996093.277343-1.496093.417968-.941407.269532-1.882813.542969-2.824219.828125-.320312.09375-.640625.195313-.960938.289063-1.039062.320312-2.078124.640625-3.113281.976562v63.558594c3.371094 5.125 8.738281 8.820312 15 9.984375zm0 0" fill="#63a1b7"/><path d="m314.765625 131.90625v-73.933594c-2.078125-.671875-4.15625-1.300781-6.234375-1.902344-.53125-.152343-1.0625-.304687-1.59375-.457031-.726562-.203125-1.453125-.398437-2.179688-.59375-.808593-.214843-1.617187-.425781-2.425781-.632812-.550781-.140625-1.105469-.28125-1.65625-.417969-.125-.03125-.25-.058594-.378906-.089844-.339844.855469-.53125 1.789063-.53125 2.765625v75.261719zm0 0" fill="#63a1b7"/><path d="m175.628906 24.675781v69.644531c0 13.628907 11.046875 24.675782 24.675782 24.675782h111.390624c13.628907 0 24.675782-11.046875 24.675782-24.675782v-69.644531c0-13.628906-11.046875-24.675781-24.675782-24.675781h-111.390624c-13.628907 0-24.675782 11.046875-24.675782 24.675781zm0 0" fill="#ffeb96"/><path d="m279.824219 80.78125h-37.902344c-8.125 0-15.226563-5.769531-16.890625-13.71875l-7.839844-37.480469h-6.914062c-4.140625 0-7.5-3.355469-7.5-7.5 0-4.140625 3.359375-7.5 7.5-7.5h7.972656c6.449219 0 12.085938 4.582031 13.40625 10.894531l8.058594 38.511719c.214844 1.039063 1.144531 1.792969 2.203125 1.792969h37.90625c.929687 0 1.777343-.585938 2.105469-1.457031l10.667968-28.238281h-41.074218c-4.140626 0-7.5-3.355469-7.5-7.5 0-4.140626 3.359374-7.5 7.5-7.5h46.3125c3.738281 0 7.238281 1.835937 9.359374 4.910156 2.125 3.074218 2.605469 6.996094 1.285157 10.488281l-12.515625 33.140625c-2.523438 6.671875-9.007813 11.15625-16.140625 11.15625zm-61.574219-51.195312h.011719zm0 0" fill="#575b7a"/><path d="m243.019531 104.410156h-1.699219c-4.144531 0-7.5-3.355468-7.5-7.5 0-4.140625 3.355469-7.5 7.5-7.5h1.699219c4.144531 0 7.5 3.359375 7.5 7.5 0 4.144532-3.355469 7.5-7.5 7.5zm0 0" fill="#575b7a"/><path d="m276.1875 104.410156h-1.699219c-4.144531 0-7.5-3.355468-7.5-7.5 0-4.140625 3.355469-7.5 7.5-7.5h1.699219c4.144531 0 7.5 3.359375 7.5 7.5 0 4.144532-3.355469 7.5-7.5 7.5zm0 0" fill="#575b7a"/><path d="m385.320312 87.914062v251.769532h34.046876v-251.769532c0-4.09375-3.320313-7.414062-7.414063-7.414062h-19.21875c-4.097656 0-7.414063 3.320312-7.414063 7.414062zm0 0" fill="#f9aa4b"/><path d="m92.632812 87.914062v251.769532h34.046876v-251.769532c0-4.09375-3.320313-7.414062-7.414063-7.414062h-19.21875c-4.09375 0-7.414063 3.320312-7.414063 7.414062zm0 0" fill="#f9aa4b"/><path d="m419.367188 114.941406v224.742188h80.097656c6.921875 0 12.535156-5.613282 12.535156-12.535156v-200.132813c0-6.667969-5.40625-12.074219-12.074219-12.074219zm0 0" fill="#5692d8"/><path d="m419.367188 114.941406h24.726562v224.742188h-24.726562zm0 0" fill="#3165a3"/><path d="m419.367188 163.605469h92.632812v114.988281h-92.632812zm0 0" fill="#c8e7f7"/><path d="m419.367188 163.605469h24.726562v114.988281h-24.726562zm0 0" fill="#8cbcd6"/><path d="m0 127.015625v200.132813c0 6.921874 5.613281 12.535156 12.535156 12.535156h80.097656v-224.742188h-80.558593c-6.667969 0-12.074219 5.40625-12.074219 12.074219zm0 0" fill="#5692d8"/><path d="m0 163.605469h92.632812v114.988281h-92.632812zm0 0" fill="#c8e7f7"/><path d="m200.839844 260.394531v79.289063h110.324218v-79.289063c0-3.679687-2.984374-6.664062-6.667968-6.664062h-96.992188c-3.683594 0-6.664062 2.984375-6.664062 6.664062zm0 0" fill="#c8e7f7"/><path d="m263.5 339.683594v-85.953125h-15v85.953125zm0 0" fill="#8cbcd6"/><path d="m473.183594 233.023438v-23.847657h38.816406v-15h-38.816406v-30.570312h-15v30.570312h-38.816406v15h38.816406v23.847657h-38.816406v15h38.816406v30.570312h15v-30.570312h38.816406v-15zm0 0" fill="#8cbcd6"/><path d="m419.367188 233.023438h24.726562v15h-24.726562zm0 0" fill="#63a1b7"/><path d="m419.367188 194.175781h24.726562v15h-24.726562zm0 0" fill="#63a1b7"/><path d="m38.816406 209.175781v23.847657h-38.816406v15h38.816406v30.570312h15v-30.570312h38.816406v-15h-38.816406v-23.847657h38.816406v-15h-38.816406v-30.570312h-15v30.570312h-38.816406v15zm0 0" fill="#8cbcd6"/><path d="m236.296875 303.761719c-4.140625 0-7.5-3.355469-7.5-7.5v-2.128907c0-4.144531 3.359375-7.5 7.5-7.5 4.144531 0 7.5 3.355469 7.5 7.5v2.128907c0 4.144531-3.355469 7.5-7.5 7.5zm0 0" fill="#575b7a"/><path d="m275.703125 303.761719c-4.144531 0-7.5-3.355469-7.5-7.5v-2.128907c0-4.144531 3.355469-7.5 7.5-7.5 4.140625 0 7.5 3.355469 7.5 7.5v2.128907c0 4.144531-3.359375 7.5-7.5 7.5zm0 0" fill="#575b7a"/></svg>